<?xml version="1.0" encoding="UTF-8" standalone="no"?>
<svg width="130px" height="140px" viewBox="0 0 130 140" version="1.1" xmlns="http://www.w3.org/2000/svg" xmlns:xlink="http://www.w3.org/1999/xlink">
    <!-- Generator: Sketch 39.1 (31720) - http://www.bohemiancoding.com/sketch -->
    <title>Imported Layers</title>
    <desc>Created with Sketch.</desc>
    <defs>
        <path d="M12.1635294,21.6398347 C5.48705882,22.9761983 0.607647059,28.6884298 0.42,35.4790083 C-0.272352941,60.4956198 4.07705882,120.377438 54.8111765,137.784876 C58.1041176,138.914711 61.5629412,139.493802 65.0441176,139.493802 C68.5258824,139.493802 71.9841176,138.914711 75.2770588,137.784876 C126.011765,120.377438 130.361176,60.4956198 129.668824,35.4790083 C129.480588,28.6884298 124.601765,22.9761983 117.924706,21.6398347 C96.4094118,17.3345455 79.8176471,7.81107438 72.97,3.39586777 C70.6076471,1.87264463 67.8570588,0.297355372 65.0441176,0.297355372 C62.2317647,0.297355372 59.4811765,1.87264463 57.1188235,3.39586777 C50.2705882,7.81107438 33.6794118,17.3345455 12.1635294,21.6398347" id="path-1"></path>
        <mask id="mask-2" maskContentUnits="userSpaceOnUse" maskUnits="objectBoundingBox" x="0" y="0" width="129.372068" height="139.196446" fill="white">
            <use xlink:href="#path-1"></use>
        </mask>
    </defs>
    <g id="Page-1" stroke="none" stroke-width="1" fill="none" fill-rule="evenodd">
        <g id="Artboard-3-Copy-2" transform="translate(-135.000000, -132.000000)">
            <g id="Imported-Layers" transform="translate(135.000000, 132.000000)">
                <use id="Fill-1" stroke="#002A7F" mask="url(#mask-2)" stroke-width="10" fill="#FFFFFF" xlink:href="#path-1"></use>
                <path d="M85.4204658,65.6090909 C85.4204658,62.4992826 87.9840556,59.9785526 91.145635,59.9785526 C94.3082036,59.9785526 96.8712988,62.4992826 96.8712988,65.6090909" id="Stroke-3" stroke="#002B80" stroke-width="3" stroke-linecap="round"></path>
                <path d="" id="Fill-4" fill="#555555"></path>
                <path d="M33.2175246,65.6090909 C33.2175246,62.4992826 35.7811144,59.9785526 38.9431884,59.9785526 C42.1047678,59.9785526 44.6683576,62.4992826 44.6683576,65.6090909" id="Stroke-5" stroke="#002B80" stroke-width="3" stroke-linecap="round"></path>
                <path d="" id="Fill-6" fill="#555555"></path>
                <path d="M78.5288235,89.7232231 C77.9617647,96.251157 72.2541176,101.380248 65.2970588,101.380248 C58.34,101.380248 52.6323529,96.251157 52.0652941,89.7232231 C52.0158824,89.1476033 52.49,88.6529752 53.0923529,88.6529752 L77.5017647,88.6529752 C78.1041176,88.6529752 78.5788235,89.1476033 78.5288235,89.7232231" id="Fill-7" fill="#002B80"></path>
                <path d="M75.0029412,92.7696694 L55.5911765,92.7696694 C54.6164706,92.7696694 53.8264706,91.9927273 53.8264706,91.0341322 L53.8264706,90.4556198 L76.7676471,90.4556198 L76.7676471,91.0341322 C76.7676471,91.9927273 75.9776471,92.7696694 75.0029412,92.7696694" id="Fill-8" fill="#FFFFFF"></path>
            </g>
        </g>
    </g>
</svg>