<?xml version="1.0" encoding="UTF-8" standalone="no"?>
<svg width="130px" height="143px" viewBox="0 0 130 143" version="1.1" xmlns="http://www.w3.org/2000/svg" xmlns:xlink="http://www.w3.org/1999/xlink">
    <!-- Generator: Sketch 39.1 (31720) - http://www.bohemiancoding.com/sketch -->
    <title>Character 2</title>
    <desc>Created with Sketch.</desc>
    <defs>
        <path d="M11.8626295,21.8234173 C5.15380738,23.1898047 0.250952657,29.030368 0.0619368774,35.9741076 C-0.633872302,61.5538524 3.73660173,122.785086 54.7176241,140.584839 C58.0262257,141.739997 61.5015573,142.332016 65,142.332016 C68.4984427,142.332016 71.9737743,141.739997 75.2823759,140.584839 C126.263398,122.785086 130.633872,61.5538524 129.938063,35.9741076 C129.749047,29.030368 124.846193,23.1898047 118.136958,21.8234173 C96.5173495,17.4206136 79.8451673,7.68304096 72.9638373,3.16843444 C70.5899972,1.6110334 67.8261573,0 65,0 C62.1738427,0 59.4100028,1.6110334 57.0361627,3.16843444 C50.1548327,7.68304096 33.4826505,17.4206136 11.8626295,21.8234173 Z" id="path-1"></path>
        <mask id="mask-2" maskContentUnits="userSpaceOnUse" maskUnits="objectBoundingBox" x="0" y="0" width="130" height="142.332016" fill="white">
            <use xlink:href="#path-1"></use>
        </mask>
    </defs>
    <g id="Page-1" stroke="none" stroke-width="1" fill="none" fill-rule="evenodd">
        <g id="Artboard-3-Copy-5" transform="translate(-135.000000, -129.000000)">
            <g id="Character-2" transform="translate(135.000000, 129.000000)">
                <use id="Fill-1" stroke="#363E4D" mask="url(#mask-2)" stroke-width="10" fill="#FFFFFF" xlink:href="#path-1"></use>
                <g id="Group" transform="translate(31.857708, 61.604743)" fill="#363E4D">
                    <path d="M59.4275589,11.8735178 C55.640652,11.8735178 52.5705329,8.76816206 52.5705329,4.93675889 C52.5705329,2.96307962 55.8981199,8.12025761 59.427559,8.18023543 C62.7488136,8.23667545 66.284585,3.07949746 66.284585,4.93675889 C66.284585,8.76816206 63.2144659,11.8735178 59.4275589,11.8735178 Z" id="Fill-3"></path>
                    <path d="M6.85702603,11.8735178 C3.07011912,11.8735178 0,8.76816206 0,4.93675889 C0,2.98628006 3.36701736,8.14945699 6.8570261,8.18510531 C10.2217529,8.21947395 13.7140521,3.05629701 13.7140521,4.93675889 C13.7140521,8.76816206 10.6439329,11.8735178 6.85702603,11.8735178 Z" id="Fill-4"></path>
                </g>
                <path d="M72.687859,91.03682 C72.3518591,97.3624461 68.9687694,102.332016 64.8449998,102.332016 C60.7212302,102.332016 57.3381405,97.3624461 57.0021406,91.03682 C56.9725371,90.4793199 57.2537705,90 57.6110849,90 L72.0789147,90 C72.4362291,90 72.7174625,90.4793199 72.687859,91.03682 Z" id="Stroke-10" fill="#363E4D" transform="translate(64.845000, 96.166008) scale(1, -1) translate(-64.845000, -96.166008) "></path>
            </g>
        </g>
    </g>
</svg>