<?xml version="1.0" encoding="UTF-8" standalone="no"?>
<svg width="130px" height="140px" viewBox="0 0 130 140" version="1.1" xmlns="http://www.w3.org/2000/svg" xmlns:xlink="http://www.w3.org/1999/xlink">
    <!-- Generator: Sketch 39.1 (31720) - http://www.bohemiancoding.com/sketch -->
    <title>Imported Layers Copy</title>
    <desc>Created with Sketch.</desc>
    <defs>
        <path d="M12.1635294,21.7809917 C5.48705882,23.1167769 0.607647059,28.8284298 0.42,35.6195868 C-0.272352941,60.6356198 4.07705882,120.518017 54.8111765,137.925455 C58.1041176,139.055289 61.5629412,139.63438 65.0441176,139.63438 C68.5258824,139.63438 71.9841176,139.055289 75.2770588,137.925455 C126.011765,120.518017 130.361176,60.6356198 129.668824,35.6195868 C129.480588,28.8284298 124.601765,23.1167769 117.924706,21.7809917 C96.4094118,17.475124 79.8176471,7.95165289 72.97,3.53702479 C70.6076471,2.01380165 67.8570588,0.438512397 65.0441176,0.438512397 C62.2317647,0.438512397 59.4811765,2.01380165 57.1188235,3.53702479 C50.2705882,7.95165289 33.6794118,17.475124 12.1635294,21.7809917" id="path-1"></path>
        <mask id="mask-2" maskContentUnits="userSpaceOnUse" maskUnits="objectBoundingBox" x="0" y="0" width="129.372068" height="139.195868" fill="white">
            <use xlink:href="#path-1"></use>
        </mask>
    </defs>
    <g id="Page-1" stroke="none" stroke-width="1" fill="none" fill-rule="evenodd">
        <g id="Artboard-3-Copy-5" transform="translate(-135.000000, -132.000000)">
            <g id="Imported-Layers-Copy" transform="translate(135.000000, 132.000000)">
                <use id="Fill-1" stroke="#242933" mask="url(#mask-2)" stroke-width="10" fill="#FFFFFF" xlink:href="#path-1"></use>
                <path d="M97.9547059,65.171157 C97.9547059,68.8701653 94.9064706,71.8680165 91.1452941,71.8680165 C87.3852941,71.8680165 84.3364706,68.8701653 84.3364706,65.171157 C84.3364706,61.4733058 87.3852941,58.474876 91.1452941,58.474876 C94.9064706,58.474876 97.9547059,61.4733058 97.9547059,65.171157" id="Fill-3" fill="#242933"></path>
                <path d="M45.7517647,65.171157 C45.7517647,68.8701653 42.7029412,71.8680165 38.9429412,71.8680165 C35.1823529,71.8680165 32.1335294,68.8701653 32.1335294,65.171157 C32.1335294,61.4733058 35.1823529,58.474876 38.9429412,58.474876 C42.7029412,58.474876 45.7517647,61.4733058 45.7517647,65.171157" id="Fill-4" fill="#242933"></path>
                <path d="M42.3470588,62.3809917 C42.3470588,63.3054545 41.5852941,64.0552066 40.6447059,64.0552066 C39.7047059,64.0552066 38.9429412,63.3054545 38.9429412,62.3809917 C38.9429412,61.4565289 39.7047059,60.7067769 40.6447059,60.7067769 C41.5852941,60.7067769 42.3470588,61.4565289 42.3470588,62.3809917" id="Fill-5" fill="#FFFFFF"></path>
                <path d="M94.55,62.3809917 C94.55,63.3054545 93.7882353,64.0552066 92.8476471,64.0552066 C91.9076471,64.0552066 91.1452941,63.3054545 91.1452941,62.3809917 C91.1452941,61.4565289 91.9076471,60.7067769 92.8476471,60.7067769 C93.7882353,60.7067769 94.55,61.4565289 94.55,62.3809917" id="Fill-6" fill="#FFFFFF"></path>
                <path d="M78.5288235,89.7232231 C77.9617647,96.251157 72.2541176,101.380248 65.2970588,101.380248 C58.34,101.380248 52.6323529,96.251157 52.0652941,89.7232231 C52.0158824,89.1476033 52.49,88.6529752 53.0923529,88.6529752 L77.5017647,88.6529752 C78.1041176,88.6529752 78.5788235,89.1476033 78.5288235,89.7232231" id="Fill-7-Copy" fill="#242933"></path>
                <path d="M75.0029412,92.7696694 L55.5911765,92.7696694 C54.6164706,92.7696694 53.8264706,91.9927273 53.8264706,91.0341322 L53.8264706,90.4556198 L76.7676471,90.4556198 L76.7676471,91.0341322 C76.7676471,91.9927273 75.9776471,92.7696694 75.0029412,92.7696694" id="Fill-8-Copy" fill="#FFFFFF"></path>
            </g>
        </g>
    </g>
</svg>