<?xml version="1.0" encoding="UTF-8" standalone="no"?>
<svg width="130px" height="140px" viewBox="0 0 130 140" version="1.1" xmlns="http://www.w3.org/2000/svg" xmlns:xlink="http://www.w3.org/1999/xlink">
    <!-- Generator: Sketch 39.1 (31720) - http://www.bohemiancoding.com/sketch -->
    <title>Imported Layers</title>
    <desc>Created with Sketch.</desc>
    <defs>
        <path d="M12.1635294,21.8509917 C5.48705882,23.1873554 0.607647059,28.8990083 0.42,35.6901653 C-0.272352941,60.7061983 4.07705882,120.588017 54.8111765,137.996033 C58.1041176,139.125868 61.5629412,139.70438 65.0441176,139.70438 C68.5258824,139.70438 71.9841176,139.125868 75.2770588,137.996033 C126.011765,120.588017 130.361176,60.7061983 129.668824,35.6901653 C129.480588,28.8990083 124.601765,23.1873554 117.924706,21.8509917 C96.4094118,17.545124 79.8176471,8.0222314 72.97,3.60702479 C70.6076471,2.08380165 67.8570588,0.508512397 65.0441176,0.508512397 C62.2317647,0.508512397 59.4811765,2.08380165 57.1188235,3.60702479 C50.2705882,8.0222314 33.6794118,17.545124 12.1635294,21.8509917" id="path-1"></path>
        <mask id="mask-2" maskContentUnits="userSpaceOnUse" maskUnits="objectBoundingBox" x="0" y="0" width="129.372068" height="139.195868" fill="white">
            <use xlink:href="#path-1"></use>
        </mask>
    </defs>
    <g id="Page-1" stroke="none" stroke-width="1" fill="none" fill-rule="evenodd">
        <g id="Imported-Layers">
            <use id="Fill-1" stroke="#CC3D3D" mask="url(#mask-2)" stroke-width="10" fill="#FFFFFF" xlink:href="#path-1"></use>
            <path d="M97.9547059,65.2417355 C97.9547059,68.9401653 94.9064706,71.9380165 91.1452941,71.9380165 C87.3852941,71.9380165 84.3364706,68.9401653 84.3364706,65.2417355 C84.3364706,61.5433058 87.3852941,58.5454545 91.1452941,58.5454545 C94.9064706,58.5454545 97.9547059,61.5433058 97.9547059,65.2417355" id="Fill-3" fill="#CC3D3D"></path>
            <path d="M45.7517647,65.2417355 C45.7517647,68.9401653 42.7029412,71.9380165 38.9429412,71.9380165 C35.1823529,71.9380165 32.1335294,68.9401653 32.1335294,65.2417355 C32.1335294,61.5433058 35.1823529,58.5454545 38.9429412,58.5454545 C42.7029412,58.5454545 45.7517647,61.5433058 45.7517647,65.2417355" id="Fill-4" fill="#CC3D3D"></path>
            <path d="M42.3470588,62.4509917 C42.3470588,63.3760331 41.5852941,64.1252066 40.6447059,64.1252066 C39.7047059,64.1252066 38.9429412,63.3760331 38.9429412,62.4509917 C38.9429412,61.5265289 39.7047059,60.7773554 40.6447059,60.7773554 C41.5852941,60.7773554 42.3470588,61.5265289 42.3470588,62.4509917" id="Fill-5" fill="#FFFFFF"></path>
            <path d="M94.55,62.4509917 C94.55,63.3760331 93.7882353,64.1252066 92.8476471,64.1252066 C91.9076471,64.1252066 91.1452941,63.3760331 91.1452941,62.4509917 C91.1452941,61.5265289 91.9076471,60.7773554 92.8476471,60.7773554 C93.7882353,60.7773554 94.55,61.5265289 94.55,62.4509917" id="Fill-6" fill="#FFFFFF"></path>
            <path d="M72.6405882,98.982314 C72.6411765,98.982314 72.3723529,98.8683471 71.9270588,98.6398347 C71.8176471,98.5860331 71.6888235,98.5108264 71.5629412,98.4576033 C71.4435294,98.4217355 71.3252941,98.3719835 71.1958824,98.325124 C71.0705882,98.2771074 70.9370588,98.2256198 70.7964706,98.1718182 C70.6429412,98.1191736 70.4811765,98.0636364 70.3123529,98.0057851 C69.9805882,97.8785124 69.6058824,97.7813223 69.2164706,97.6777686 C69.0252941,97.6164463 68.8252941,97.5666942 68.6152941,97.5319835 C68.4105882,97.487438 68.2011765,97.442314 67.9882353,97.3960331 C67.5529412,97.3428099 67.1158824,97.2502479 66.6588235,97.2253719 C66.2070588,97.1663636 65.7429412,97.1756198 65.2817647,97.1513223 C64.8205882,97.1756198 64.3564706,97.1640496 63.9052941,97.2230579 C63.4470588,97.2450413 63.0111765,97.3410744 62.5747059,97.3919835 C62.1570588,97.4995868 61.7252941,97.5458678 61.3458824,97.6731405 C61.1517647,97.7257851 60.9635294,97.7824793 60.7741176,97.8258678 C60.59,97.8785124 60.42,97.9467769 60.2494118,98.0028926 C59.9064706,98.1116529 59.6,98.232562 59.3276471,98.348843 C59.0517647,98.4593388 58.8023529,98.5524793 58.6147059,98.6554545 C58.2235294,98.842314 57.9752941,98.9383471 57.9752941,98.9383471 L57.7705882,99.0176033 C57.0476471,99.2964463 56.2311765,98.9464463 55.9470588,98.2360331 C55.7664706,97.7836364 55.8505882,97.2866942 56.1176471,96.9181818 C56.1176471,96.9181818 56.3052941,96.6642149 56.6752941,96.2384298 C56.8558824,96.0191736 57.0935294,95.7727273 57.3958824,95.5210744 C57.5452941,95.3903306 57.7035294,95.2509091 57.8711765,95.1039669 C58.0423529,94.9604959 58.2423529,94.8419008 58.4423529,94.7007438 C58.6458824,94.5659504 58.8552941,94.4143802 59.0823529,94.2778512 C59.3123529,94.1482645 59.5570588,94.0256198 59.8082353,93.8942975 C60.0564706,93.7554545 60.3241176,93.6443802 60.6017647,93.5402479 C60.8782353,93.4309091 61.1629412,93.3215702 61.4564706,93.2226446 C62.0511765,93.0595041 62.6688235,92.8743802 63.3158824,92.796281 C63.9576471,92.6724793 64.6205882,92.6638017 65.2817647,92.6302479 C65.9429412,92.6638017 66.6064706,92.6701653 67.2488235,92.7945455 C67.8958824,92.8697521 68.5135294,93.0583471 69.1082353,93.218595 C69.69,93.4343802 70.2588235,93.6166116 70.7576471,93.8902479 C71.0070588,94.0215702 71.2494118,94.15 71.4841176,94.2732231 C71.7105882,94.4103306 71.92,94.5619008 72.1235294,94.6966942 C72.3258824,94.8395868 72.5182353,94.9552893 72.6994118,95.1039669 C72.8788235,95.2590083 73.0488235,95.4065289 73.2082353,95.5447934 C73.3647059,95.6847934 73.5129412,95.8097521 73.64,95.9352893 C73.7523529,96.0544628 73.8282353,96.1580165 73.9111765,96.2540496 C74.2270588,96.6381818 74.3935294,96.8742149 74.3935294,96.8742149 C74.8476471,97.5157851 74.6870588,98.3980165 74.0341176,98.8446281 C73.6111765,99.1344628 73.0823529,99.168595 72.6405882,98.982314" id="Fill-7" fill="#555555"></path>
            <path d="M57.0047059,99.8807438 C55.2247059,99.8807438 54.0870588,98.0844628 55.0376471,96.7076033 C56.8358824,94.101405 60.7470588,91.7815702 65.2817647,91.7815702 C69.8170588,91.7815702 73.7282353,94.101405 75.5264706,96.7076033 C76.4764706,98.0844628 75.3388235,99.8807438 73.5594118,99.8807438 L57.0047059,99.8807438" id="Fill-8" fill="#7F2626"></path>
        </g>
    </g>
</svg>