<?xml version="1.0" encoding="UTF-8" standalone="no"?>
<svg width="130px" height="140px" viewBox="0 0 130 140" version="1.1" xmlns="http://www.w3.org/2000/svg" xmlns:xlink="http://www.w3.org/1999/xlink">
    <!-- Generator: Sketch 39.1 (31720) - http://www.bohemiancoding.com/sketch -->
    <title>Group</title>
    <desc>Created with Sketch.</desc>
    <defs>
        <path d="M12.1635294,21.5019087 C5.48705882,22.8438174 0.607647059,28.5791701 0.42,35.3979253 C-0.272352941,60.5177593 4.07705882,120.648631 54.8111765,138.12888 C58.1041176,139.262822 61.5629412,139.844315 65.0441176,139.844315 C68.5258824,139.844315 71.9841176,139.262822 75.2770588,138.12888 C126.011765,120.648631 130.361176,60.5177593 129.668824,35.3979253 C129.480588,28.5791701 124.601765,22.8438174 117.924706,21.5019087 C96.4094118,17.1781743 79.8176471,7.61576763 72.97,3.18224066 C70.6076471,1.6526971 67.8570588,0.0708713693 65.0441176,0.0708713693 C62.2317647,0.0708713693 59.4811765,1.6526971 57.1188235,3.18224066 C50.2705882,7.61576763 33.6794118,17.1781743 12.1635294,21.5019087" id="path-1"></path>
        <mask id="mask-2" maskContentUnits="userSpaceOnUse" maskUnits="objectBoundingBox" x="0" y="0" width="129.372068" height="139.773444" fill="white">
            <use xlink:href="#path-1"></use>
        </mask>
    </defs>
    <g id="Page-1" stroke="none" stroke-width="1" fill="none" fill-rule="evenodd">
        <g id="Group">
            <g id="Imported-Layers">
                <use id="Fill-1" stroke="#CC3D3D" mask="url(#mask-2)" stroke-width="10" fill="#FFFFFF" xlink:href="#path-1"></use>
                <path d="M50.8752941,103.763237 C50.8752941,100.112199 54.6370588,91.7836515 65.8752941,91.7836515 C77.1141176,91.7836515 80.8752941,100.112199 80.8752941,103.763237 C80.8752941,107.413693 74.16,105.726141 65.8752941,105.726141 C57.5917647,105.726141 50.8752941,107.413693 50.8752941,103.763237" id="Fill-3" fill="#7F2626"></path>
                <path d="M86.2929412,61.1370124 C88.4205882,65.6687137 93.8547059,67.6362656 98.4441176,65.5351037" id="Stroke-4" stroke="#CC3D3D" stroke-width="3" stroke-linecap="round"></path>
                <path d="M73.8858824,104.962241 L73.8858824,113.176929 C73.8858824,117.395519 70.3905882,120.847303 66.1182353,120.847303 L65.6329412,120.847303 C61.3611765,120.847303 57.8652941,117.395519 57.8652941,113.176929 L57.8652941,104.962241" id="Fill-5" fill="#F15A24"></path>
                <path d="M121.838235,44.7355187 C121.838235,47.0771784 119.916471,48.9750207 117.545882,48.9750207 C115.175294,48.9750207 113.252941,47.0771784 113.252941,44.7355187 C113.252941,42.3944398 115.175294,34.6874689 117.545882,34.6874689 C119.916471,34.6874689 121.838235,42.3944398 121.838235,44.7355187" id="Fill-6" fill="#29ABE2"></path>
                <path d="M45.5029412,61.1370124 C43.3752941,65.6687137 37.9405882,67.6362656 33.3517647,65.5351037" id="Stroke-7" stroke="#CC3D3D" stroke-width="3" stroke-linecap="round"></path>
                <path d="M70.5647059,99.786888 C69.2341176,99.473195 67.8588235,99.646888 66.5617647,100.075021 C66.3017647,100.160996 66.0247059,100.207469 65.7352941,100.207469 C65.4094118,100.207469 65.0982353,100.148216 64.8105882,100.041328 C63.4141176,99.519668 61.8547059,99.5707884 60.4241176,99.9896266 C56.6770588,101.088133 55.2870588,103.207884 55.2870588,104.312199 C55.2870588,105.844647 60.0282353,105.724398 65.8752941,105.724398 C71.7235294,105.724398 76.4635294,105.844647 76.4635294,104.312199 C76.4635294,103.13527 74.8888235,100.805228 70.5647059,99.786888" id="Fill-8" fill="#F15A24"></path>
                <path d="M63.3323529,118.365062 C61.8475372,117.694108 60.6792234,116.561909 60.0823529,115.191535" id="Fill-9" fill="#F15A24"></path>
                <path d="M63.3323529,118.365062 C61.8475372,117.694108 60.6792234,116.561909 60.0823529,115.191535" id="Stroke-10" stroke="#FFFFFF" stroke-width="2" stroke-linecap="round"></path>
            </g>
        </g>
    </g>
</svg>