<?xml version="1.0" encoding="UTF-8" standalone="no"?>
<svg width="130px" height="140px" viewBox="0 0 130 140" version="1.1" xmlns="http://www.w3.org/2000/svg" xmlns:xlink="http://www.w3.org/1999/xlink">
    <!-- Generator: Sketch 39.1 (31720) - http://www.bohemiancoding.com/sketch -->
    <title>Group 2</title>
    <desc>Created with Sketch.</desc>
    <defs>
        <path d="M12.1635294,21.4316183 C5.48705882,22.7729461 0.607647059,28.5082988 0.42,35.3276349 C-0.272352941,60.4474689 4.07705882,120.57834 54.8111765,138.058008 C58.1041176,139.192531 61.5629412,139.774025 65.0441176,139.774025 C68.5258824,139.774025 71.9841176,139.192531 75.2770588,138.058008 C126.011765,120.57834 130.361176,60.4474689 129.668824,35.3276349 C129.480588,28.5082988 124.601765,22.7729461 117.924706,21.4316183 C96.4094118,17.1073029 79.8176471,7.54489627 72.97,3.11136929 C70.6076471,1.58240664 67.8570588,0 65.0441176,0 C62.2317647,0 59.4811765,1.58240664 57.1188235,3.11136929 C50.2705882,7.54489627 33.6794118,17.1073029 12.1635294,21.4316183" id="path-1"></path>
        <mask id="mask-2" maskContentUnits="userSpaceOnUse" maskUnits="objectBoundingBox" x="0" y="0" width="129.372068" height="139.774025" fill="white">
            <use xlink:href="#path-1"></use>
        </mask>
    </defs>
    <g id="Page-1" stroke="none" stroke-width="1" fill="none" fill-rule="evenodd">
        <g id="Group-2">
            <g id="Imported-Layers">
                <use id="Fill-1" stroke="#CC3D3D" mask="url(#mask-2)" stroke-width="10" fill="#FFFFFF" xlink:href="#path-1"></use>
                <path d="M84.2005882,64.879834 C86.5511765,69.3029046 92.0764706,71.0038174 96.5552941,68.6830705" id="Stroke-3" stroke="#CC3D3D" stroke-width="3" stroke-linecap="round"></path>
                <path d="M72.6405882,98.8824066 C72.6411765,98.8824066 72.3723529,98.7679668 71.9270588,98.5385062 C71.8176471,98.4844813 71.6888235,98.4095436 71.5629412,98.3555187 C71.4435294,98.3195021 71.3252941,98.2701245 71.1958824,98.2224896 C71.0705882,98.1742739 70.9370588,98.1225726 70.7964706,98.0685477 C70.6429412,98.0156846 70.4811765,97.959917 70.3123529,97.9024066 C69.9805882,97.7740249 69.6058824,97.6770124 69.2164706,97.5724481 C69.0252941,97.5114523 68.8252941,97.4609129 68.6152941,97.4260581 C68.4105882,97.3813278 68.2011765,97.3360166 67.9882353,97.2895436 C67.5529412,97.2360996 67.1158824,97.1431535 66.6588235,97.1187552 C66.2070588,97.0589212 65.7429412,97.0682158 65.2817647,97.0443983 C64.8205882,97.0682158 64.3564706,97.0565975 63.9052941,97.1158506 C63.4470588,97.1385062 63.0111765,97.2343568 62.5747059,97.2854772 C62.1570588,97.393527 61.7252941,97.44 61.3458824,97.5683817 C61.1517647,97.6206639 60.9635294,97.6775934 60.7741176,97.7211618 C60.59,97.7740249 60.42,97.8425726 60.2494118,97.8989212 C59.9064706,98.0081328 59.6,98.1301245 59.3276471,98.2463071 C59.0517647,98.3572614 58.8023529,98.4507884 58.6147059,98.5541909 C58.2235294,98.7418257 57.9752941,98.8376763 57.9752941,98.8376763 L57.7705882,98.9178423 C57.0476471,99.1978423 56.2311765,98.846971 55.9470588,98.133029 C55.7664706,97.6787552 55.8505882,97.179751 56.1176471,96.8097095 C56.1176471,96.8097095 56.3052941,96.5546888 56.6752941,96.1271369 C56.8558824,95.9075519 57.0935294,95.6595021 57.3958824,95.406805 C57.5452941,95.2755187 57.7035294,95.1355187 57.8711765,94.9885477 C58.0423529,94.8444813 58.2423529,94.7248133 58.4423529,94.5830705 C58.6458824,94.4471369 58.8552941,94.2955187 59.0823529,94.1584232 C59.3123529,94.0288797 59.5570588,93.9057261 59.8082353,93.7738589 C60.0564706,93.6344398 60.3241176,93.5223237 60.6017647,93.4171784 C60.8782353,93.3079668 61.1629412,93.1987552 61.4564706,93.0988382 C62.0511765,92.9350207 62.6688235,92.7497095 63.3158824,92.6712863 C63.9576471,92.54639 64.6205882,92.5382573 65.2817647,92.5045643 C65.9429412,92.5376763 66.6064706,92.5440664 67.2488235,92.6689627 C67.8958824,92.7444813 68.5135294,92.933278 69.1082353,93.0953527 C69.69,93.3120332 70.2588235,93.4950207 70.7576471,93.7692116 C71.0070588,93.9010788 71.2494118,94.0300415 71.4841176,94.1537759 C71.7105882,94.2914523 71.92,94.4436515 72.1235294,94.5795851 C72.3258824,94.7230705 72.5182353,94.8392531 72.6994118,94.9879668 C72.8788235,95.1436515 73.0488235,95.2917842 73.2082353,95.4306224 C73.3647059,95.5712033 73.5129412,95.6966805 73.64,95.8227386 C73.7523529,95.9429876 73.8282353,96.04639 73.9111765,96.1434025 C74.2270588,96.5285477 74.3935294,96.7655602 74.3935294,96.7655602 C74.8476471,97.4097925 74.6870588,98.2962656 74.0341176,98.7447303 C73.6111765,99.0351867 73.0823529,99.0694606 72.6405882,98.8824066" id="Fill-4" fill="#555555"></path>
                <path d="M57.0047059,99.7845643 C55.2247059,99.7845643 54.0870588,97.9808299 55.0376471,96.5982573 C56.8358824,93.9818257 60.7470588,91.6517842 65.2817647,91.6517842 C69.8170588,91.6517842 73.7282353,93.9818257 75.5264706,96.5982573 C76.4764706,97.9808299 75.3388235,99.7845643 73.5594118,99.7845643 L57.0047059,99.7845643" id="Fill-5" fill="#7F2626"></path>
                <path d="M46.1758824,64.879834 C43.8252941,69.3029046 38.2994118,71.0038174 33.8205882,68.6830705" id="Stroke-6" stroke="#CC3D3D" stroke-width="3" stroke-linecap="round"></path>
            </g>
        </g>
    </g>
</svg>